<?xml version="1.0" encoding="utf-8"?>
<!-- Generator: Adobe Illustrator 16.0.3, SVG Export Plug-In . SVG Version: 6.00 Build 0)  -->
<!DOCTYPE svg PUBLIC "-//W3C//DTD SVG 1.1//EN" "http://www.w3.org/Graphics/SVG/1.1/DTD/svg11.dtd">
<svg version="1.1" id="Layer_1" xmlns="http://www.w3.org/2000/svg" xmlns:xlink="http://www.w3.org/1999/xlink" x="0px" y="0px"
	 width="364.394px" height="100px" viewBox="0 0 364.394 100" enable-background="new 0 0 364.394 100" xml:space="preserve">
<g>
	<g>
		<path fill="none" stroke="#FFFFFF" stroke-width="1.5" d="M13.621,27.805c-1.753,0.006-3.506,0.01-5.259,0.017
			c-0.731,0.006-0.882-0.146-0.941-0.87c-0.2-2.403,0.187-4.715,1.244-6.881c2.046-4.182,5.365-6.794,9.952-7.614
			c6.057-1.079,11.82,1.873,14.585,7.357c1.114,2.21,1.563,4.563,1.372,7.037c-0.008,0.111-0.008,0.222-0.017,0.334
			c-0.029,0.371-0.274,0.631-0.645,0.631c-1.914,0.002-3.228-0.004-5.144-0.014"/>
		<path fill="none" stroke="#FFFFFF" stroke-width="1.5" d="M21.517,30.42c-1.44-0.032-2.621-0.804-3.171-2.13
			c-0.625-1.5-0.991-3.079-1.297-4.669c-0.215-1.113-0.386-2.236-0.561-3.354c-0.026-0.171-0.011-0.369,0.046-0.533
			c0.101-0.29,0.456-0.438,0.757-0.341c0.133,0.044,0.265,0.109,0.377,0.192c1.943,1.431,3.843,2.914,5.551,4.627
			c0.293,0.292,0.567,0.608,0.845,0.919c1.574,1.761,0.726,4.457-1.596,5.122C22.159,30.337,21.833,30.366,21.517,30.42z"/>
		<path fill="none" stroke="#41C363" stroke-width="1.5" d="M26.478,13.359c2.835,1.246,5.223,3.476,6.723,6.454
			c1.115,2.21,1.563,4.563,1.372,7.037c-0.008,0.111-0.008,0.223-0.017,0.334c-0.029,0.371-0.274,0.632-0.645,0.632
			c-1.914,0.001-3.228-0.005-5.144-0.015"/>
	</g>
</g>
<g>
	<g>
		<path fill="none" stroke="#FFFFFF" stroke-width="1.5" d="M13.621,87.811c-1.753,0.006-3.506,0.01-5.259,0.021
			c-0.731,0.006-0.882-0.146-0.941-0.87c-0.2-2.397,0.187-4.716,1.244-6.882c2.046-4.188,5.365-6.801,9.952-7.614
			c6.057-1.079,11.82,1.873,14.585,7.354c1.114,2.209,1.563,4.563,1.372,7.037c-0.008,0.108-0.008,0.226-0.017,0.334
			c-0.029,0.371-0.274,0.631-0.645,0.631c-1.914,0.006-3.228-0.004-5.144-0.014"/>
		<path fill="none" stroke="#FFFFFF" stroke-width="1.5" d="M21.517,90.425c-1.44-0.032-2.621-0.804-3.171-2.13
			c-0.625-1.5-0.991-3.079-1.297-4.67c-0.215-1.113-0.386-2.236-0.561-3.354c-0.026-0.172-0.011-0.369,0.046-0.533
			c0.101-0.29,0.456-0.438,0.757-0.342c0.133,0.045,0.265,0.104,0.377,0.188c1.943,1.436,3.843,2.914,5.551,4.627
			c0.293,0.293,0.567,0.605,0.845,0.926c1.574,1.76,0.726,4.451-1.596,5.116C22.159,90.342,21.833,90.37,21.517,90.425z"/>
		<path fill="none" stroke="#000000" stroke-width="1.5" d="M26.478,73.361c2.835,1.246,5.223,3.478,6.723,6.455
			c1.115,2.209,1.563,4.563,1.372,7.037c-0.008,0.104-0.008,0.223-0.017,0.334c-0.029,0.371-0.274,0.631-0.645,0.631
			c-1.914,0.002-3.228-0.004-5.144-0.014"/>
	</g>
</g>
<g>
	<path fill="none" stroke="#FFFFFF" stroke-width="1.5" stroke-miterlimit="10" d="M72.191,27.889c0-3.404-2.759-6.16-6.158-6.16"/>
	<circle fill="none" stroke="#FFFFFF" stroke-width="1.5" stroke-miterlimit="10" cx="66.035" cy="12.533" r="6.158"/>
	<path fill="none" stroke="#41C363" stroke-width="1.5" stroke-miterlimit="10" d="M66.035,21.729c-3.399,0-6.16,2.756-6.16,6.16"/>
	<path fill="none" stroke="#FFFFFF" stroke-width="1.5" stroke-miterlimit="10" d="M59.876,27.889v6.43h10.083"/>
	<path fill="none" stroke="#FFFFFF" stroke-width="1.5" stroke-miterlimit="10" d="M62.109,34.318h10.083v-6.43"/>
</g>
<g>
	<path fill="none" stroke="#000000" stroke-width="1.5" stroke-miterlimit="10" d="M72.191,87.889c0-3.404-2.759-6.16-6.158-6.16"/>
	<circle fill="none" stroke="#000000" stroke-width="1.5" stroke-miterlimit="10" cx="66.035" cy="72.533" r="6.158"/>
	<path fill="none" stroke="#FFFFFF" stroke-width="1.5" stroke-miterlimit="10" d="M66.035,81.729c-3.399,0-6.16,2.756-6.16,6.16"/>
	<path fill="none" stroke="#000000" stroke-width="1.5" stroke-miterlimit="10" d="M59.876,87.889v6.43h10.083"/>
	<path fill="none" stroke="#000000" stroke-width="1.5" stroke-miterlimit="10" d="M62.109,94.318h10.083v-6.43"/>
</g>
<rect x="99.688" y="11.354" fill="none" stroke="#FFFFFF" stroke-width="1.5" stroke-miterlimit="10" width="17.561" height="17.559"/>
<rect x="104.548" y="16.213" fill="none" stroke="#FFFFFF" stroke-width="1.5" stroke-miterlimit="10" width="7.621" height="7.619"/>
<polyline fill="none" stroke="#FFFFFF" stroke-width="1.5" stroke-miterlimit="10" points="102.783,10.471 102.783,6.054 
	100.129,6.054 "/>
<polyline fill="none" stroke="#FFFFFF" stroke-width="1.5" stroke-miterlimit="10" points="113.934,10.471 113.934,6.054 
	116.584,6.054 "/>
<line fill="none" stroke="#FFFFFF" stroke-width="1.5" stroke-miterlimit="10" x1="110.404" y1="10.471" x2="110.404" y2="6.054"/>
<line fill="none" stroke="#FFFFFF" stroke-width="1.5" stroke-miterlimit="10" x1="106.65" y1="10.471" x2="106.65" y2="6.054"/>
<polyline fill="none" stroke="#FFFFFF" stroke-width="1.5" stroke-miterlimit="10" points="102.783,29.574 102.783,33.991 
	100.129,33.991 "/>
<polyline fill="none" stroke="#FFFFFF" stroke-width="1.5" stroke-miterlimit="10" points="113.934,29.574 113.934,33.991 
	116.584,33.991 "/>
<line fill="none" stroke="#FFFFFF" stroke-width="1.5" stroke-miterlimit="10" x1="110.404" y1="29.574" x2="110.404" y2="33.991"/>
<line fill="none" stroke="#FFFFFF" stroke-width="1.5" stroke-miterlimit="10" x1="106.65" y1="29.574" x2="106.65" y2="33.991"/>
<polyline fill="none" stroke="#FFFFFF" stroke-width="1.5" stroke-miterlimit="10" points="118.021,25.929 122.44,25.929 
	122.44,28.582 "/>
<polyline fill="none" stroke="#FFFFFF" stroke-width="1.5" stroke-miterlimit="10" points="118.021,14.775 122.44,14.775 
	122.44,12.125 "/>
<line fill="none" stroke="#FFFFFF" stroke-width="1.5" stroke-miterlimit="10" x1="118.021" y1="18.2" x2="122.44" y2="18.2"/>
<line fill="none" stroke="#FFFFFF" stroke-width="1.5" stroke-miterlimit="10" x1="118.021" y1="22.064" x2="122.44" y2="22.064"/>
<polyline fill="none" stroke="#FFFFFF" stroke-width="1.5" stroke-miterlimit="10" points="98.809,25.929 94.389,25.929 
	94.389,28.582 "/>
<polyline fill="none" stroke="#FFFFFF" stroke-width="1.5" stroke-miterlimit="10" points="98.809,14.775 94.389,14.775 
	94.389,12.125 "/>
<line fill="none" stroke="#FFFFFF" stroke-width="1.5" stroke-miterlimit="10" x1="98.809" y1="18.2" x2="94.389" y2="18.2"/>
<line fill="none" stroke="#FFFFFF" stroke-width="1.5" stroke-miterlimit="10" x1="98.809" y1="22.064" x2="94.389" y2="22.064"/>
<polyline fill="none" stroke="#41C363" stroke-width="1.5" stroke-miterlimit="10" points="99.688,20.408 99.688,11.354 
	108.415,11.354 "/>
<polyline fill="none" stroke="#41C363" stroke-width="1.5" stroke-miterlimit="10" points="108.083,28.802 117.142,28.802 
	117.142,20.078 "/>
<rect x="99.688" y="71.898" fill="none" stroke="#FFFFFF" stroke-width="1.5" stroke-miterlimit="10" width="17.561" height="17.561"/>
<rect x="104.548" y="76.758" fill="none" stroke="#FFFFFF" stroke-width="1.5" stroke-miterlimit="10" width="7.621" height="7.617"/>
<polyline fill="none" stroke="#FFFFFF" stroke-width="1.5" stroke-miterlimit="10" points="102.783,71.02 102.783,66.6 
	100.129,66.6 "/>
<polyline fill="none" stroke="#FFFFFF" stroke-width="1.5" stroke-miterlimit="10" points="113.934,71.02 113.934,66.6 
	116.584,66.6 "/>
<line fill="none" stroke="#FFFFFF" stroke-width="1.5" stroke-miterlimit="10" x1="110.404" y1="71.02" x2="110.404" y2="66.6"/>
<line fill="none" stroke="#FFFFFF" stroke-width="1.5" stroke-miterlimit="10" x1="106.65" y1="71.02" x2="106.65" y2="66.6"/>
<polyline fill="none" stroke="#FFFFFF" stroke-width="1.5" stroke-miterlimit="10" points="102.783,90.119 102.783,94.533 
	100.129,94.533 "/>
<polyline fill="none" stroke="#FFFFFF" stroke-width="1.5" stroke-miterlimit="10" points="113.934,90.119 113.934,94.533 
	116.584,94.533 "/>
<line fill="none" stroke="#FFFFFF" stroke-width="1.5" stroke-miterlimit="10" x1="110.404" y1="90.119" x2="110.404" y2="94.533"/>
<line fill="none" stroke="#FFFFFF" stroke-width="1.5" stroke-miterlimit="10" x1="106.65" y1="90.119" x2="106.65" y2="94.533"/>
<polyline fill="none" stroke="#FFFFFF" stroke-width="1.5" stroke-miterlimit="10" points="118.021,86.477 122.44,86.477 
	122.44,89.127 "/>
<polyline fill="none" stroke="#FFFFFF" stroke-width="1.5" stroke-miterlimit="10" points="118.021,75.32 122.44,75.32 
	122.44,72.672 "/>
<line fill="none" stroke="#FFFFFF" stroke-width="1.5" stroke-miterlimit="10" x1="118.021" y1="78.743" x2="122.44" y2="78.743"/>
<line fill="none" stroke="#FFFFFF" stroke-width="1.5" stroke-miterlimit="10" x1="118.021" y1="82.609" x2="122.44" y2="82.609"/>
<polyline fill="none" stroke="#FFFFFF" stroke-width="1.5" stroke-miterlimit="10" points="98.809,86.477 94.389,86.477 
	94.389,89.127 "/>
<polyline fill="none" stroke="#FFFFFF" stroke-width="1.5" stroke-miterlimit="10" points="98.809,75.32 94.389,75.32 
	94.389,72.672 "/>
<line fill="none" stroke="#FFFFFF" stroke-width="1.5" stroke-miterlimit="10" x1="98.809" y1="78.743" x2="94.389" y2="78.743"/>
<line fill="none" stroke="#FFFFFF" stroke-width="1.5" stroke-miterlimit="10" x1="98.809" y1="82.609" x2="94.389" y2="82.609"/>
<polyline fill="none" stroke="#000000" stroke-width="1.5" stroke-miterlimit="10" points="99.688,80.953 99.688,71.898 
	108.415,71.898 "/>
<polyline fill="none" stroke="#000000" stroke-width="1.5" stroke-miterlimit="10" points="108.083,89.348 117.142,89.348 
	117.142,80.62 "/>
<g>
	<path fill="none" stroke="#FFFFFF" stroke-width="1.5" stroke-miterlimit="10" d="M153.677,31.868c-0.401,0-0.81,0-1.208,0
		c-1.687,0-5.182,0.002-6.867-0.001c-1.326-0.002-2.354-0.778-2.688-2.033c-0.063-0.249-0.095-0.516-0.095-0.775
		c-0.01-3.135-0.004-6.268-0.004-9.398c0-3.121-0.006-6.245,0-9.367c0.002-1.64,1.166-2.823,2.813-2.823
		c5.479-0.004,10.965,0.004,16.457-0.007c1.604-0.002,2.814,1.287,2.813,2.745c-0.021,2.708-0.002,8.127-0.008,10.836"/>
</g>
<g>
	<path fill="none" stroke="#FFFFFF" stroke-width="1.5" stroke-miterlimit="10" d="M148.298,12.652
		c-0.101,0-0.187,0.083-0.187,0.185v2.382c0,0.103,0.084,0.185,0.187,0.185h10.491c0.104,0,0.187-0.079,0.187-0.185v-2.382
		c0-0.104-0.082-0.185-0.187-0.185H148.298z"/>
</g>
<g>
	<g>
		<path fill="none" stroke="#41C363" stroke-width="1.5" stroke-miterlimit="10" d="M156.827,21.577
			c5.469,0.688,9.765,5.19,10.423,10.406"/>
	</g>
	<g>
		<path fill="none" stroke="#FFFFFF" stroke-width="1.5" stroke-miterlimit="10" d="M156.817,25.414
			c3.535,0.673,6.041,3.593,6.572,6.571"/>
	</g>
	<g>
		<path fill="#FFFFFF" d="M158.028,29.814c0.611,0.002,1.095,0.498,1.088,1.121c-0.008,0.599-0.495,1.073-1.11,1.071
			c-0.612-0.004-1.089-0.496-1.088-1.123C156.933,30.29,157.424,29.812,158.028,29.814z"/>
	</g>
</g>
<g>
	<path fill="none" stroke="#FFFFFF" stroke-width="1.5" stroke-miterlimit="10" d="M153.368,19.437h-5.987"/>
</g>
<g>
	<path fill="none" stroke="#FFFFFF" stroke-width="1.5" stroke-miterlimit="10" d="M153.368,23.259h-5.987"/>
</g>
<g>
	<path fill="none" stroke="#FFFFFF" stroke-width="1.5" stroke-miterlimit="10" d="M153.368,27.082h-5.987"/>
</g>
<g>
	<path fill="none" stroke="#41C363" stroke-width="1.5" stroke-miterlimit="10" d="M153.677,31.868c-0.401,0-0.81,0-1.208,0
		c-1.687,0-5.182,0.002-6.867-0.001c-1.326-0.002-2.354-0.778-2.688-2.033c-0.063-0.249-0.095-0.516-0.095-0.775
		c-0.01-3.135-0.004-6.268-0.004-9.398"/>
</g>
<g>
	<path fill="none" stroke="#FFFFFF" stroke-width="1.5" stroke-miterlimit="10" d="M153.677,91.868c-0.401,0-0.81,0-1.208,0
		c-1.687,0-5.182,0.002-6.867-0.001c-1.326-0.002-2.354-0.778-2.688-2.033c-0.063-0.249-0.095-0.516-0.095-0.775
		c-0.01-3.135-0.004-6.268-0.004-9.396c0-3.121-0.006-6.244,0-9.367c0.002-1.642,1.166-2.819,2.813-2.819
		c5.479-0.006,10.965,0.004,16.457-0.011c1.604-0.002,2.814,1.287,2.813,2.745c-0.021,2.708-0.002,8.128-0.008,10.836"/>
</g>
<g>
	<path fill="none" stroke="#FFFFFF" stroke-width="1.5" stroke-miterlimit="10" d="M148.298,72.652
		c-0.101,0-0.187,0.082-0.187,0.185v2.382c0,0.104,0.084,0.186,0.187,0.186h10.491c0.104,0,0.187-0.072,0.187-0.186v-2.382
		c0-0.104-0.082-0.185-0.187-0.185H148.298L148.298,72.652z"/>
</g>
<g>
	<g>
		<path fill="none" stroke="#000000" stroke-width="1.5" stroke-miterlimit="10" d="M156.827,81.577
			c5.469,0.688,9.765,5.19,10.423,10.405"/>
	</g>
	<g>
		<path fill="none" stroke="#FFFFFF" stroke-width="1.5" stroke-miterlimit="10" d="M156.817,85.414
			c3.535,0.673,6.041,3.593,6.572,6.57"/>
	</g>
	<g>
		<path fill="#FFFFFF" d="M158.028,89.814c0.611,0.002,1.095,0.498,1.088,1.121c-0.008,0.599-0.495,1.065-1.11,1.063
			c-0.612-0.004-1.089-0.496-1.088-1.123C156.933,90.29,157.424,89.813,158.028,89.814z"/>
	</g>
</g>
<g>
	<path fill="none" stroke="#FFFFFF" stroke-width="1.5" stroke-miterlimit="10" d="M153.368,79.438h-5.987"/>
</g>
<g>
	<path fill="none" stroke="#FFFFFF" stroke-width="1.5" stroke-miterlimit="10" d="M153.368,83.259h-5.987"/>
</g>
<g>
	<path fill="none" stroke="#FFFFFF" stroke-width="1.5" stroke-miterlimit="10" d="M153.368,87.082h-5.987"/>
</g>
<g>
	<path fill="none" stroke="#000000" stroke-width="1.5" stroke-miterlimit="10" d="M153.677,91.868c-0.401,0-0.81,0-1.208,0
		c-1.687,0-5.182,0.002-6.867-0.001c-1.326-0.002-2.354-0.778-2.688-2.033c-0.063-0.249-0.095-0.516-0.095-0.775
		c-0.01-3.135-0.004-6.268-0.004-9.396"/>
</g>
<rect x="182.694" y="4.227" fill="#8B7100" fill-opacity="0" width="29.634" height="29.632"/>
<rect x="182.435" y="62.867" fill="#8B7100" fill-opacity="0" width="29.633" height="29.633"/>
<path fill="none" stroke="#FFFFFF" stroke-width="1.5" stroke-miterlimit="10" d="M197.425,20.874c-2.525,0-4.619-2.094-4.619-4.621
	s2.092-4.618,4.619-4.618c2.528,0,4.619,2.091,4.619,4.618l0,0l0,0C202.044,18.78,199.953,20.874,197.425,20.874z"/>
<path fill="none" stroke="#FFFFFF" stroke-width="1.5" stroke-miterlimit="10" d="M197.425,7.277c-4.967,0-8.977,4.009-8.977,8.977
	c0,1.221,0.261,2.527,0.783,3.662c2.268,4.88,6.537,10.022,7.756,11.503c0.089,0.087,0.263,0.174,0.352,0.174
	c0.174,0,0.262-0.087,0.348-0.174c1.223-1.481,5.58-6.623,7.758-11.503c0.522-1.135,0.785-2.354,0.785-3.662
	C206.401,11.286,202.394,7.277,197.425,7.277z"/>
<path fill="none" stroke="#41C363" stroke-width="1.5" stroke-miterlimit="10" d="M199.167,29.677
	c2.527-3.051,4.621-6.362,6.361-9.848c0.523-1.135,0.785-2.354,0.785-3.662"/>
<path fill="none" stroke="#FFFFFF" stroke-width="1.5" stroke-miterlimit="10" d="M197.425,79.514c-2.525,0-4.619-2.092-4.619-4.619
	c0-2.526,2.092-4.619,4.619-4.619c2.528,0,4.619,2.093,4.619,4.619C202.044,77.422,199.953,79.514,197.425,79.514L197.425,79.514z"
	/>
<path fill="none" stroke="#FFFFFF" stroke-width="1.5" stroke-miterlimit="10" d="M197.425,65.915c-4.967,0-8.977,4.013-8.977,8.979
	c0,1.223,0.261,2.525,0.783,3.66c2.268,4.881,6.537,10.023,7.756,11.506c0.089,0.086,0.263,0.17,0.352,0.17
	c0.174,0,0.262-0.084,0.348-0.17c1.223-1.48,5.58-6.625,7.758-11.506c0.522-1.135,0.785-2.354,0.785-3.66
	C206.401,69.928,202.394,65.915,197.425,65.915z"/>
<path fill="none" stroke="#000000" stroke-width="1.5" stroke-miterlimit="10" d="M199.167,88.316
	c2.527-3.051,4.621-6.361,6.361-9.846c0.523-1.137,0.785-2.354,0.785-3.666"/>
<polyline fill="none" stroke="#FFFFFF" stroke-width="1.5" stroke-miterlimit="10" points="251.379,25.458 229.688,25.458 
	229.688,9.899 255.249,9.899 255.249,21.5 "/>
<path fill="none" stroke="#41C363" stroke-width="1.5" stroke-miterlimit="10" d="M255.146,29.319c-2.024,0-3.703-1.679-3.703-3.705
	c0-2.026,1.679-3.702,3.703-3.702c2.027,0,3.703,1.676,3.703,3.702l0,0l0,0C258.851,27.641,257.174,29.319,255.146,29.319z"/>
<line fill="none" stroke="#FFFFFF" stroke-width="1.5" stroke-miterlimit="10" x1="232.882" y1="29.37" x2="232.882" y2="25.811"/>
<line fill="none" stroke="#FFFFFF" stroke-width="1.5" stroke-miterlimit="10" x1="231.104" y1="29.36" x2="234.662" y2="29.36"/>
<path fill="none" stroke="#FFFFFF" stroke-width="1.5" stroke-miterlimit="10" d="M246.146,21.726c-2.248,0-4.108-1.863-4.108-4.111
	c0-2.248,1.86-4.108,4.108-4.108c2.25,0,4.109,1.86,4.109,4.108l0,0l0,0C250.256,19.863,248.396,21.726,246.146,21.726z"/>
<polyline fill="none" stroke="#FFFFFF" stroke-width="1.5" stroke-miterlimit="10" points="233.688,9.724 233.688,6.165 
	240.249,6.165 240.249,9.724 "/>
<line fill="none" stroke="#FFFFFF" stroke-width="1.5" stroke-miterlimit="10" x1="247.571" y1="6.161" x2="247.571" y2="9.721"/>
<line fill="none" stroke="#FFFFFF" stroke-width="1.5" stroke-miterlimit="10" x1="253.353" y1="6.171" x2="245.792" y2="6.171"/>
<line fill="none" stroke="#FFFFFF" stroke-width="1.5" stroke-miterlimit="10" x1="251.571" y1="6.161" x2="251.571" y2="9.721"/>
<line fill="none" stroke="#FFFFFF" stroke-width="1.5" stroke-miterlimit="10" x1="246.138" y1="21.606" x2="246.138" y2="13.658"/>
<line fill="none" stroke="#FFFFFF" stroke-width="1.5" stroke-miterlimit="10" x1="242.161" y1="17.632" x2="250.108" y2="17.632"/>
<polyline fill="none" stroke="#FFFFFF" stroke-width="1.5" stroke-miterlimit="10" points="229.813,15.977 236.374,15.977 
	236.374,25.537 "/>
<line fill="none" stroke="#FFFFFF" stroke-width="1.5" stroke-miterlimit="10" x1="229.813" y1="19.238" x2="236.58" y2="19.238"/>
<line fill="none" stroke="#FFFFFF" stroke-width="1.5" stroke-miterlimit="10" x1="229.813" y1="22.238" x2="236.58" y2="22.238"/>
<polyline fill="none" stroke="#41C363" stroke-width="1.5" stroke-miterlimit="10" points="242.119,25.469 229.688,25.469 
	229.688,9.125 "/>
<path fill="#FFFFFF" d="M255.146,26.751c-0.621,0-1.135-0.514-1.135-1.135c0-0.621,0.514-1.135,1.135-1.135s1.137,0.514,1.137,1.135
	l0,0l0,0C256.282,26.237,255.769,26.751,255.146,26.751z"/>
<polyline fill="none" stroke="#FFFFFF" stroke-width="1.5" stroke-miterlimit="10" points="251.379,86.459 229.688,86.459 
	229.688,70.898 255.249,70.898 255.249,82.5 "/>
<path fill="none" stroke="#000000" stroke-width="1.5" stroke-miterlimit="10" d="M255.146,90.318c-2.024,0-3.703-1.678-3.703-3.703
	c0-2.026,1.679-3.703,3.703-3.703c2.027,0,3.703,1.677,3.703,3.703l0,0l0,0C258.851,88.641,257.174,90.318,255.146,90.318z"/>
<line fill="none" stroke="#FFFFFF" stroke-width="1.5" stroke-miterlimit="10" x1="232.882" y1="90.37" x2="232.882" y2="86.811"/>
<line fill="none" stroke="#FFFFFF" stroke-width="1.5" stroke-miterlimit="10" x1="231.104" y1="90.359" x2="234.662" y2="90.359"/>
<path fill="none" stroke="#FFFFFF" stroke-width="1.5" stroke-miterlimit="10" d="M246.146,82.727c-2.248,0-4.108-1.861-4.108-4.109
	s1.86-4.109,4.108-4.109c2.25,0,4.109,1.861,4.109,4.109l0,0l0,0C250.256,80.863,248.396,82.727,246.146,82.727z"/>
<polyline fill="none" stroke="#FFFFFF" stroke-width="1.5" stroke-miterlimit="10" points="233.688,70.725 233.688,67.164 
	240.249,67.164 240.249,70.725 "/>
<line fill="none" stroke="#FFFFFF" stroke-width="1.5" stroke-miterlimit="10" x1="247.571" y1="67.161" x2="247.571" y2="70.721"/>
<line fill="none" stroke="#FFFFFF" stroke-width="1.5" stroke-miterlimit="10" x1="253.353" y1="67.172" x2="245.792" y2="67.172"/>
<line fill="none" stroke="#FFFFFF" stroke-width="1.5" stroke-miterlimit="10" x1="251.571" y1="67.161" x2="251.571" y2="70.721"/>
<line fill="none" stroke="#FFFFFF" stroke-width="1.5" stroke-miterlimit="10" x1="246.138" y1="82.605" x2="246.138" y2="74.658"/>
<line fill="none" stroke="#FFFFFF" stroke-width="1.5" stroke-miterlimit="10" x1="242.161" y1="78.632" x2="250.108" y2="78.632"/>
<polyline fill="none" stroke="#FFFFFF" stroke-width="1.5" stroke-miterlimit="10" points="229.813,76.977 236.374,76.977 
	236.374,86.537 "/>
<line fill="none" stroke="#FFFFFF" stroke-width="1.5" stroke-miterlimit="10" x1="229.813" y1="80.238" x2="236.58" y2="80.238"/>
<line fill="none" stroke="#FFFFFF" stroke-width="1.5" stroke-miterlimit="10" x1="229.813" y1="83.238" x2="236.58" y2="83.238"/>
<polyline fill="none" stroke="#000000" stroke-width="1.5" stroke-miterlimit="10" points="242.119,86.469 229.688,86.469 
	229.688,70.125 "/>
<path fill="#FFFFFF" d="M255.146,87.751c-0.621,0-1.135-0.515-1.135-1.136s0.514-1.135,1.135-1.135s1.137,0.514,1.137,1.135l0,0l0,0
	C256.282,87.236,255.769,87.751,255.146,87.751z"/>
<line fill="none" stroke="#FFFFFF" stroke-width="1.5" stroke-linecap="round" stroke-linejoin="round" stroke-miterlimit="10" x1="287.06" y1="16.712" x2="287.06" y2="21.277"/>
<circle fill="#FFFFFF" cx="287.06" cy="25.012" r="1.094"/>
<polyline fill="none" stroke="#FFFFFF" stroke-width="1.5" stroke-linecap="round" stroke-linejoin="round" stroke-miterlimit="10" points="
	286.229,10.137 287.06,8.647 298.365,29 280.969,29 "/>
<polyline fill="none" stroke="#41C363" stroke-width="1.5" stroke-linecap="round" stroke-linejoin="round" stroke-miterlimit="10" points="
	281.144,29 275.75,29 287.06,8.647 "/>
<line fill="none" stroke="#FFFFFF" stroke-width="1.5" stroke-linecap="round" stroke-linejoin="round" stroke-miterlimit="10" x1="287.06" y1="73.712" x2="287.06" y2="78.277"/>
<circle fill="#FFFFFF" cx="287.06" cy="82.012" r="1.094"/>
<polyline fill="none" stroke="#FFFFFF" stroke-width="1.5" stroke-linecap="round" stroke-linejoin="round" stroke-miterlimit="10" points="
	286.229,67.137 287.06,65.646 298.365,86 280.969,86 "/>
<polyline fill="none" stroke="#000000" stroke-width="1.5" stroke-linecap="round" stroke-linejoin="round" stroke-miterlimit="10" points="
	281.144,86 275.75,86 287.06,65.646 "/>
<rect x="315.983" y="1" fill="#8B7100" fill-opacity="0" width="34" height="34"/>
<g>
	
		<line fill="none" stroke="#FFFFFF" stroke-width="1.5" stroke-miterlimit="10" x1="332.069" y1="27.808" x2="332.069" y2="30.397"/>
	
		<line fill="none" stroke="#FFFFFF" stroke-width="1.5" stroke-miterlimit="10" x1="329.819" y1="27.851" x2="339.024" y2="27.851"/>
	<g>
		<path fill="none" stroke="#FFFFFF" stroke-width="1.5" stroke-miterlimit="10" d="M342.774,30.167
			c-0.344,0.169-0.729,0.264-1.135,0.264c-1.421,0-2.57-1.154-2.57-2.573s1.152-2.572,2.57-2.572c0.019,0,0.036,0,0.055,0"/>
	</g>
	
		<line fill="none" stroke="#FFFFFF" stroke-width="1.5" stroke-miterlimit="10" x1="336.069" y1="27.808" x2="336.069" y2="32.397"/>
	<g>
		<path fill="none" stroke="#41C363" stroke-width="1.5" stroke-miterlimit="10" d="M341.64,25.284c1.418,0,2.571,1.153,2.571,2.572
			c0,1.025-0.604,1.913-1.474,2.326"/>
	</g>
</g>
<g>
	<path fill="none" stroke="#FFFFFF" stroke-width="1.5" stroke-miterlimit="10" d="M336.01,25.349c0-0.195-0.01-0.388-0.026-0.579
		c-0.291-3.132-2.928-5.581-6.131-5.581"/>
	<circle fill="none" stroke="#FFFFFF" stroke-width="1.5" stroke-miterlimit="10" cx="329.854" cy="9.992" r="6.158"/>
	<path fill="none" stroke="#41C363" stroke-width="1.5" stroke-miterlimit="10" d="M329.854,19.188c-3.399,0-6.16,2.756-6.16,6.16"
		/>
	<path fill="none" stroke="#FFFFFF" stroke-width="1.5" stroke-miterlimit="10" d="M323.694,25.349v6.43h5.084"/>
	<path fill="none" stroke="#FFFFFF" stroke-width="1.5" stroke-miterlimit="10" d="M336.01,25.349"/>
	<path fill="none" stroke="#FFFFFF" stroke-width="1.5" stroke-miterlimit="10" d="M325.929,31.777"/>
</g>
<rect x="315.983" y="59.016" fill="#8B7100" fill-opacity="0" width="34" height="34.002"/>
<g>
	
		<line fill="none" stroke="#FFFFFF" stroke-width="1.5" stroke-miterlimit="10" x1="332.069" y1="85.824" x2="332.069" y2="88.414"/>
	
		<line fill="none" stroke="#FFFFFF" stroke-width="1.5" stroke-miterlimit="10" x1="329.819" y1="85.867" x2="339.024" y2="85.867"/>
	<g>
		<path fill="none" stroke="#FFFFFF" stroke-width="1.5" stroke-miterlimit="10" d="M342.774,88.184
			c-0.344,0.168-0.729,0.268-1.135,0.268c-1.421,0-2.57-1.154-2.57-2.573s1.152-2.569,2.57-2.569c0.019,0,0.036,0,0.055,0"/>
	</g>
	
		<line fill="none" stroke="#FFFFFF" stroke-width="1.5" stroke-miterlimit="10" x1="336.069" y1="85.824" x2="336.069" y2="90.414"/>
	<g>
		<path fill="none" stroke="#000000" stroke-width="1.5" stroke-miterlimit="10" d="M341.64,83.3c1.418,0,2.571,1.153,2.571,2.572
			c0,1.024-0.604,1.913-1.474,2.326"/>
	</g>
</g>
<g>
	<path fill="none" stroke="#FFFFFF" stroke-width="1.5" stroke-miterlimit="10" d="M336.01,83.365c0-0.195-0.01-0.389-0.026-0.579
		c-0.291-3.132-2.928-5.581-6.131-5.581"/>
	<circle fill="none" stroke="#FFFFFF" stroke-width="1.5" stroke-miterlimit="10" cx="329.854" cy="68.009" r="6.158"/>
	<path fill="none" stroke="#000000" stroke-width="1.5" stroke-miterlimit="10" d="M329.854,77.205c-3.399,0-6.16,2.756-6.16,6.16"
		/>
	<path fill="none" stroke="#FFFFFF" stroke-width="1.5" stroke-miterlimit="10" d="M323.694,83.365v6.43h5.084"/>
	<path fill="none" stroke="#FFFFFF" stroke-width="1.5" stroke-miterlimit="10" d="M336.01,83.365"/>
	<path fill="none" stroke="#FFFFFF" stroke-width="1.5" stroke-miterlimit="10" d="M325.929,89.794"/>
</g>
</svg>
